<svg width="114" height="44" viewBox="0 0 114 44" fill="none" xmlns="http://www.w3.org/2000/svg">
<path d="M25.2031 27.2812C23.3281 27.2812 21.6615 26.8854 20.2031 26.0938C18.7448 25.3021 17.599 24.2083 16.7656 22.8125C15.9323 21.4167 15.5156 19.8125 15.5156 18C15.5156 16.1458 15.9323 14.5 16.7656 13.0625C17.599 11.6042 18.7448 10.4583 20.2031 9.625C21.6823 8.79167 23.3594 8.375 25.2344 8.375C27.0677 8.375 28.6719 8.77083 30.0469 9.5625C31.4427 10.3333 32.5365 11.4167 33.3281 12.8125C34.1198 14.1875 34.5156 15.7917 34.5156 17.625C34.5156 19.1667 34.2344 20.5417 33.6719 21.75C33.1302 22.9375 32.401 23.9479 31.4844 24.7812C30.5885 25.5938 29.5885 26.2188 28.4844 26.6562C27.401 27.0729 26.3073 27.2812 25.2031 27.2812ZM25.4531 25.1562C26.474 25.1562 27.3385 24.8958 28.0469 24.375C28.7552 23.8333 29.2865 23.0625 29.6406 22.0625C30.0156 21.0417 30.2031 19.8229 30.2031 18.4062C30.2031 16.7604 29.974 15.3333 29.5156 14.125C29.0781 12.8958 28.4635 11.9479 27.6719 11.2812C26.8802 10.5938 25.9427 10.25 24.8594 10.25C23.3177 10.25 22.099 10.875 21.2031 12.125C20.3281 13.3542 19.8906 15.0521 19.8906 17.2188C19.8906 18.7812 20.1302 20.1562 20.6094 21.3438C21.0885 22.5312 21.7448 23.4688 22.5781 24.1562C23.4115 24.8229 24.3698 25.1562 25.4531 25.1562ZM21.6719 6.65625C21.0677 6.65625 20.5885 6.47917 20.2344 6.125C19.8802 5.75 19.7031 5.3125 19.7031 4.8125C19.7031 4.3125 19.8802 3.88542 20.2344 3.53125C20.5885 3.15625 21.0677 2.96875 21.6719 2.96875C22.2552 2.96875 22.7135 3.15625 23.0469 3.53125C23.401 3.88542 23.5781 4.3125 23.5781 4.8125C23.5781 5.3125 23.401 5.75 23.0469 6.125C22.7135 6.47917 22.2552 6.65625 21.6719 6.65625ZM28.4219 6.65625C27.8177 6.65625 27.3385 6.47917 26.9844 6.125C26.6302 5.75 26.4531 5.3125 26.4531 4.8125C26.4531 4.3125 26.6302 3.88542 26.9844 3.53125C27.3385 3.15625 27.8177 2.96875 28.4219 2.96875C29.026 2.96875 29.4948 3.15625 29.8281 3.53125C30.1615 3.88542 30.3281 4.3125 30.3281 4.8125C30.3281 5.3125 30.1615 5.75 29.8281 6.125C29.4948 6.47917 29.026 6.65625 28.4219 6.65625ZM41.1406 26.4375L41.0156 25.2812H44.9219C45.276 25.2812 45.6302 25.2708 45.9844 25.25C46.3385 25.2083 46.6823 25.1771 47.0156 25.1562L47.8281 22.4375H49.6719L49.0781 27.0625C48.5573 27.0208 48.0052 27 47.4219 27C46.8594 27 46.3698 27 45.9531 27H40.1719C39.7344 27 39.2865 27 38.8281 27C38.3698 27.0208 37.9219 27.0521 37.4844 27.0938V25.7812L45.3281 13.9375L45.2969 15.0625H41.7344C41.2552 15.0625 40.8281 15.0729 40.4531 15.0938C40.0781 15.1146 39.7344 15.1458 39.4219 15.1875L38.9844 17.75H37.2031L37.1406 13.3438C37.6823 13.3646 38.2344 13.375 38.7969 13.375C39.3594 13.375 39.849 13.375 40.2656 13.375H46.1094C46.5469 13.375 46.9948 13.375 47.4531 13.375C47.9115 13.3542 48.3698 13.3333 48.8281 13.3125V14.625L41.1406 26.4375ZM51.0781 27L50.9844 25.6562L52.7656 25.1562C52.8073 24.9479 52.8385 24.5729 52.8594 24.0312C52.901 23.4688 52.9219 22.8229 52.9219 22.0938C52.9427 21.3646 52.9531 20.625 52.9531 19.875V15.6875C52.9531 14.9375 52.9427 14.1875 52.9219 13.4375C52.9219 12.6667 52.9115 11.9479 52.8906 11.2812C52.8906 10.5938 52.8802 9.98958 52.8594 9.46875C52.8594 8.92708 52.849 8.51042 52.8281 8.21875L50.5156 7.90625L50.4531 6.6875L55.8594 5.25L56.6406 5.75C56.599 6.375 56.5677 7 56.5469 7.625C56.526 8.22917 56.5052 8.875 56.4844 9.5625C56.4635 10.25 56.4531 11.0312 56.4531 11.9062C56.4531 12.7604 56.4531 13.75 56.4531 14.875L56.4219 22.1562C56.4219 22.6771 56.4323 23.1458 56.4531 23.5625C56.474 23.9792 56.4948 24.3229 56.5156 24.5938C56.5365 24.8646 56.5469 25.0521 56.5469 25.1562L58.4844 25.6562L58.3906 27H51.0781ZM67.0469 27H62.3594C62.026 26.5417 61.724 26.1667 61.4531 25.875C61.2031 25.5625 60.9531 25.2708 60.7031 25L56.7969 20.7188H55.9844L56.0156 19.6875L57.0469 19.4375L61.6094 15.0938L59.5469 14.75L59.6406 13.375H66.3281L66.4219 14.75L64.3594 15.125L59.0156 19.6875L59.3594 18.375L64.0781 23.5625C64.4323 23.9583 64.776 24.3229 65.1094 24.6562C65.4427 24.9688 65.6927 25.2083 65.8594 25.375L67.1406 25.6562L67.0469 27ZM72.6094 27.25C71.6719 27.25 70.8594 27.0521 70.1719 26.6562C69.5052 26.2604 68.9948 25.7812 68.6406 25.2188C68.2865 24.6562 68.1094 24.1146 68.1094 23.5938C68.1094 22.8646 68.3385 22.2604 68.7969 21.7812C69.2552 21.2812 69.9844 20.875 70.9844 20.5625L75.8594 19.0625V17.7812C75.8594 17.3229 75.7135 16.8958 75.4219 16.5C75.1302 16.1042 74.7448 15.7812 74.2656 15.5312C73.7865 15.2812 73.2656 15.1562 72.7031 15.1562C72.3073 15.1562 72.026 15.25 71.8594 15.4375C71.7135 15.6042 71.6198 15.9479 71.5781 16.4688L71.4531 18.1562C70.5156 18.3646 69.7344 18.3438 69.1094 18.0938C68.5052 17.8229 68.2031 17.3854 68.2031 16.7812C68.2031 16.4062 68.3906 16.0208 68.7656 15.625C69.1406 15.2292 69.6094 14.8542 70.1719 14.5C70.7552 14.1458 71.3594 13.8438 71.9844 13.5938C72.6094 13.3438 73.1823 13.1875 73.7031 13.125C75.4531 13.125 76.8385 13.5417 77.8594 14.375C78.901 15.2083 79.4323 16.3229 79.4531 17.7188L79.3594 22.3438C79.3594 22.8646 79.3698 23.3021 79.3906 23.6562C79.4323 23.9896 79.4948 24.2604 79.5781 24.4688L81.6094 24.8438V26.0312L79.7656 26.8125C79.4115 26.9583 79.0885 27.0625 78.7969 27.125C78.5052 27.2083 78.2344 27.25 77.9844 27.25C77.2344 27.25 76.7135 26.8542 76.4219 26.0625L75.9531 24.6875L76.5469 24.8125C75.901 25.5833 75.2448 26.1875 74.5781 26.625C73.9115 27.0417 73.2552 27.25 72.6094 27.25ZM73.9531 24.75C74.3073 24.75 74.6406 24.6771 74.9531 24.5312C75.2865 24.3854 75.5885 24.1562 75.8594 23.8438V20.7188L73.2656 21.2812C72.7656 21.3854 72.401 21.5625 72.1719 21.8125C71.9635 22.0625 71.8594 22.3958 71.8594 22.8125C71.8594 23.3125 72.0573 23.7604 72.4531 24.1562C72.8698 24.5521 73.3698 24.75 73.9531 24.75ZM82.6406 27L82.5469 25.6562L84.4844 25.1562C84.5052 25.0729 84.526 24.9062 84.5469 24.6562C84.5677 24.3854 84.5885 24.0312 84.6094 23.5938C84.6302 23.1354 84.6406 22.5938 84.6406 21.9688L84.6719 19.5938C84.6719 18.9271 84.651 18.3229 84.6094 17.7812C84.5677 17.2396 84.4948 16.7292 84.3906 16.25L82.3906 15.8125V14.5312L87.4844 13.1875L88.2344 13.7188L88.0469 15.4688L88.1406 15.5C88.8073 14.7083 89.5156 14.1146 90.2656 13.7188C91.0365 13.3229 91.849 13.125 92.7031 13.125C93.5573 13.125 94.3281 13.3438 95.0156 13.7812C95.724 14.1979 96.2865 14.8229 96.7031 15.6562C97.1198 16.4896 97.3281 17.5104 97.3281 18.7188V21.9688C97.3281 22.6771 97.3385 23.3438 97.3594 23.9688C97.3802 24.5729 97.4219 24.9688 97.4844 25.1562L99.4219 25.6562L99.3281 27H91.9844L91.8906 25.6562L93.7031 25.1562C93.7448 24.9896 93.776 24.75 93.7969 24.4375C93.8177 24.125 93.8281 23.7604 93.8281 23.3438C93.849 22.9271 93.8594 22.5 93.8594 22.0625V19.1875C93.8594 18.375 93.724 17.7188 93.4531 17.2188C93.2031 16.6979 92.8698 16.3229 92.4531 16.0938C92.0365 15.8438 91.5781 15.7188 91.0781 15.7188C90.4948 15.7188 89.9531 15.8542 89.4531 16.125C88.9531 16.375 88.5156 16.75 88.1406 17.25V21.875C88.1406 22.6667 88.151 23.375 88.1719 24C88.2135 24.6042 88.2656 24.9896 88.3281 25.1562L90.2656 25.6562L90.1719 27H82.6406Z" fill="#242F3C"/>
<path d="M1.41611 41V34.7H2.79311L5.43011 38.309H4.53011L7.16711 34.7H8.53511V41H7.04111V39.038C7.04111 38.51 7.05311 38.024 7.07711 37.58C7.10111 37.136 7.14911 36.689 7.22111 36.239L7.37411 36.734L5.27711 39.461H4.66511L2.55911 36.734L2.73011 36.239C2.80811 36.677 2.85911 37.118 2.88311 37.562C2.90711 38 2.91911 38.492 2.91911 39.038V41H1.41611ZM10.132 41L13.012 34.7H14.407L17.26 41H15.694L14.092 37.481C14.038 37.349 13.984 37.22 13.93 37.094C13.876 36.968 13.825 36.842 13.777 36.716C13.729 36.584 13.684 36.455 13.642 36.329C13.6 36.203 13.561 36.077 13.525 35.951L13.84 35.942C13.798 36.08 13.756 36.215 13.714 36.347C13.672 36.473 13.627 36.599 13.579 36.725C13.531 36.851 13.48 36.977 13.426 37.103C13.372 37.229 13.315 37.361 13.255 37.499L11.671 41H10.132ZM11.482 39.848L11.977 38.678H15.388L15.712 39.848H11.482ZM18.8624 41V34.7H20.4014V39.641H23.9654V41H18.8624ZM26.0535 41V39.659H27.4935V36.041H26.0535V34.7H30.4725V36.041H29.0325V39.659H30.4725V41H26.0535ZM28.2675 34.196C27.9915 34.196 27.7785 34.13 27.6285 33.998C27.4785 33.866 27.4035 33.683 27.4035 33.449C27.4035 33.239 27.4785 33.062 27.6285 32.918C27.7785 32.774 27.9915 32.702 28.2675 32.702C28.5495 32.702 28.7625 32.768 28.9065 32.9C29.0565 33.032 29.1315 33.215 29.1315 33.449C29.1315 33.659 29.0535 33.836 28.8975 33.98C28.7475 34.124 28.5375 34.196 28.2675 34.196ZM36.9942 41V34.7H38.3712L41.0082 38.309H40.1082L42.7452 34.7H44.1132V41H42.6192V39.038C42.6192 38.51 42.6312 38.024 42.6552 37.58C42.6792 37.136 42.7272 36.689 42.7992 36.239L42.9522 36.734L40.8552 39.461H40.2432L38.1372 36.734L38.3082 36.239C38.3862 36.677 38.4372 37.118 38.4612 37.562C38.4852 38 38.4972 38.492 38.4972 39.038V41H36.9942ZM49.6161 41.054C49.0041 41.054 48.4671 40.931 48.0051 40.685C47.5491 40.439 47.1891 40.103 46.9251 39.677C46.6671 39.251 46.5381 38.765 46.5381 38.219V34.691H48.0861V38.165C48.0861 38.465 48.1521 38.729 48.2841 38.957C48.4161 39.185 48.5991 39.365 48.8331 39.497C49.0671 39.623 49.3251 39.686 49.6071 39.686C49.9131 39.686 50.1831 39.623 50.4171 39.497C50.6571 39.365 50.8431 39.185 50.9751 38.957C51.1131 38.729 51.1821 38.465 51.1821 38.165V34.691H52.6761V38.219C52.6761 38.765 52.5471 39.251 52.2891 39.677C52.0371 40.103 51.6801 40.439 51.2181 40.685C50.7621 40.931 50.2281 41.054 49.6161 41.054ZM50.6961 34.223C50.4381 34.223 50.2431 34.157 50.1111 34.025C49.9791 33.887 49.9131 33.695 49.9131 33.449C49.9131 33.239 49.9791 33.059 50.1111 32.909C50.2491 32.759 50.4441 32.684 50.6961 32.684C50.9601 32.684 51.1551 32.753 51.2811 32.891C51.4131 33.023 51.4791 33.209 51.4791 33.449C51.4791 33.665 51.4101 33.848 51.2721 33.998C51.1401 34.148 50.9481 34.223 50.6961 34.223ZM48.5001 34.223C48.2421 34.223 48.0471 34.157 47.9151 34.025C47.7831 33.887 47.7171 33.695 47.7171 33.449C47.7171 33.239 47.7831 33.059 47.9151 32.909C48.0531 32.759 48.2481 32.684 48.5001 32.684C48.7641 32.684 48.9621 32.753 49.0941 32.891C49.2321 33.023 49.3011 33.209 49.3011 33.449C49.3011 33.665 49.2291 33.848 49.0851 33.998C48.9471 34.148 48.7521 34.223 48.5001 34.223ZM57.5678 41.09C56.8538 41.09 56.2388 40.988 55.7228 40.784C55.2128 40.574 54.7718 40.295 54.3998 39.947L55.2008 38.786C55.6148 39.158 56.0258 39.419 56.4338 39.569C56.8478 39.719 57.2558 39.794 57.6578 39.794C57.8438 39.794 58.0268 39.776 58.2068 39.74C58.3868 39.698 58.5338 39.632 58.6478 39.542C58.7678 39.452 58.8278 39.332 58.8278 39.182C58.8278 39.08 58.7978 38.996 58.7378 38.93C58.6778 38.864 58.5968 38.807 58.4948 38.759C58.3928 38.705 58.2728 38.663 58.1348 38.633C57.9968 38.597 57.8498 38.57 57.6938 38.552C57.5378 38.528 57.3788 38.507 57.2168 38.489C56.8268 38.435 56.4788 38.357 56.1728 38.255C55.8668 38.147 55.6058 38.015 55.3898 37.859C55.1798 37.697 55.0178 37.508 54.9038 37.292C54.7958 37.07 54.7418 36.821 54.7418 36.545C54.7418 36.131 54.8678 35.777 55.1198 35.483C55.3778 35.183 55.7168 34.955 56.1368 34.799C56.5628 34.637 57.0308 34.556 57.5408 34.556C58.1948 34.556 58.7408 34.649 59.1788 34.835C59.6228 35.021 59.9708 35.258 60.2228 35.546L59.3948 36.563C59.1548 36.335 58.8668 36.161 58.5308 36.041C58.2008 35.921 57.8678 35.861 57.5318 35.861C57.3038 35.861 57.0968 35.882 56.9108 35.924C56.7308 35.966 56.5898 36.029 56.4878 36.113C56.3918 36.197 56.3438 36.305 56.3438 36.437C56.3438 36.551 56.3858 36.647 56.4698 36.725C56.5538 36.797 56.6648 36.857 56.8028 36.905C56.9468 36.953 57.1058 36.995 57.2798 37.031C57.4538 37.061 57.6278 37.088 57.8018 37.112C58.1498 37.16 58.4798 37.223 58.7918 37.301C59.1098 37.379 59.3918 37.487 59.6378 37.625C59.8838 37.757 60.0758 37.934 60.2138 38.156C60.3578 38.378 60.4298 38.657 60.4298 38.993C60.4298 39.431 60.3068 39.809 60.0608 40.127C59.8148 40.439 59.4758 40.679 59.0438 40.847C58.6118 41.009 58.1198 41.09 57.5678 41.09ZM56.9108 43.214L56.8208 42.548C56.9528 42.548 57.0878 42.536 57.2258 42.512C57.3638 42.488 57.4808 42.449 57.5768 42.395C57.6728 42.341 57.7208 42.275 57.7208 42.197C57.7208 42.125 57.6818 42.065 57.6038 42.017C57.5318 41.975 57.4448 41.942 57.3428 41.918C57.2468 41.894 57.1478 41.882 57.0458 41.882L56.9018 41.738L57.5228 40.775H58.2608L57.8558 41.378C58.1498 41.42 58.3748 41.516 58.5308 41.666C58.6928 41.816 58.7738 42.011 58.7738 42.251C58.7738 42.437 58.7138 42.593 58.5938 42.719C58.4798 42.845 58.3298 42.944 58.1438 43.016C57.9578 43.094 57.7568 43.148 57.5408 43.178C57.3248 43.208 57.1148 43.22 56.9108 43.214ZM61.548 41L64.428 34.7H65.823L68.676 41H67.11L65.508 37.481C65.454 37.349 65.4 37.22 65.346 37.094C65.292 36.968 65.241 36.842 65.193 36.716C65.145 36.584 65.1 36.455 65.058 36.329C65.016 36.203 64.977 36.077 64.941 35.951L65.256 35.942C65.214 36.08 65.172 36.215 65.13 36.347C65.088 36.473 65.043 36.599 64.995 36.725C64.947 36.851 64.896 36.977 64.842 37.103C64.788 37.229 64.731 37.361 64.671 37.499L63.087 41H61.548ZM62.898 39.848L63.393 38.678H66.804L67.128 39.848H62.898ZM71.5277 41L68.7827 34.7H70.3757L71.6897 37.841C71.7377 37.967 71.7917 38.105 71.8517 38.255C71.9177 38.399 71.9837 38.555 72.0497 38.723C72.1217 38.891 72.1877 39.065 72.2477 39.245C72.3137 39.419 72.3737 39.596 72.4277 39.776H72.1127C72.1787 39.542 72.2507 39.32 72.3287 39.11C72.4127 38.894 72.4967 38.684 72.5807 38.48C72.6707 38.27 72.7547 38.063 72.8327 37.859L74.0927 34.7H75.6677L72.9677 41H71.5277ZM77.3904 41V39.659H78.8304V36.041H77.3904V34.7H81.8094V36.041H80.3694V39.659H81.8094V41H77.3904ZM79.6044 34.196C79.3284 34.196 79.1154 34.13 78.9654 33.998C78.8154 33.866 78.7404 33.683 78.7404 33.449C78.7404 33.239 78.8154 33.062 78.9654 32.918C79.1154 32.774 79.3284 32.702 79.6044 32.702C79.8864 32.702 80.0994 32.768 80.2434 32.9C80.3934 33.032 80.4684 33.215 80.4684 33.449C80.4684 33.659 80.3904 33.836 80.2344 33.98C80.0844 34.124 79.8744 34.196 79.6044 34.196ZM84.3497 41V34.7H87.7067C88.1687 34.7 88.5707 34.787 88.9127 34.961C89.2547 35.129 89.5187 35.363 89.7047 35.663C89.8967 35.963 89.9927 36.314 89.9927 36.716C89.9927 37.118 89.8907 37.478 89.6867 37.796C89.4827 38.108 89.2067 38.357 88.8587 38.543C88.5167 38.729 88.1297 38.822 87.6977 38.822H85.8167V41H84.3497ZM88.5347 41L86.6087 38.147L88.2017 37.922L90.3077 41.009L88.5347 41ZM85.8167 37.625H87.5447C87.7067 37.625 87.8567 37.592 87.9947 37.526C88.1327 37.454 88.2437 37.355 88.3277 37.229C88.4117 37.103 88.4537 36.959 88.4537 36.797C88.4537 36.629 88.4087 36.485 88.3187 36.365C88.2287 36.245 88.1087 36.152 87.9587 36.086C87.8147 36.02 87.6527 35.987 87.4727 35.987H85.8167V37.625ZM92.3917 41V34.7H93.9307V39.641H97.4947V41H92.3917ZM99.5828 41V39.659H101.023V36.041H99.5828V34.7H104.002V36.041H102.562V39.659H104.002V41H99.5828ZM101.797 34.196C101.521 34.196 101.308 34.13 101.158 33.998C101.008 33.866 100.933 33.683 100.933 33.449C100.933 33.239 101.008 33.062 101.158 32.918C101.308 32.774 101.521 32.702 101.797 32.702C102.079 32.702 102.292 32.768 102.436 32.9C102.586 33.032 102.661 33.215 102.661 33.449C102.661 33.659 102.583 33.836 102.427 33.98C102.277 34.124 102.067 34.196 101.797 34.196ZM107.622 39.362L107.253 38.048L111.177 34.7H113.103L107.622 39.362ZM106.542 41V34.7H108.081V41H106.542ZM111.303 41L108.765 37.805L109.728 36.824L113.148 41H111.303Z" fill="#374F69"/>
</svg>
